<svg version="1.1" id="Layer_1" xmlns="http://www.w3.org/2000/svg" xmlns:xlink="http://www.w3.org/1999/xlink" x="0px" y="0px"
	 width="100%" viewBox="0 0 459 455" enable-background="new 0 0 459 455" xml:space="preserve">
<path fill="#000000" opacity="1.000000" stroke="none" 
	d="
M460.000000,2.999997 
	C460.000000,153.928970 460.000000,304.857941 460.000000,456.000000 
	C307.975983,456.000000 155.951874,456.000000 3.126821,455.779816 
	C2.792284,454.912079 3.258696,454.264496 3.974371,453.408264 
	C13.213265,444.902893 22.323616,436.732422 31.163864,428.279480 
	C44.011433,415.994812 56.664337,403.506531 69.399628,391.104431 
	C69.876930,390.639679 70.338852,390.158875 70.822655,389.701080 
	C80.906616,380.158539 90.992683,370.618286 101.382721,360.939392 
	C105.676170,356.822021 109.601448,352.776367 113.666382,348.876282 
	C125.429840,337.589874 137.249451,326.362030 149.353180,314.969727 
	C158.466766,306.245422 167.274216,297.662567 176.389069,288.938477 
	C185.169846,280.835022 193.643250,272.872803 202.377899,264.665070 
	C205.210480,270.013672 207.800949,275.040863 210.523193,279.995605 
	C212.217468,283.079346 214.111160,286.053558 215.959274,289.439697 
	C221.724594,300.867798 227.445984,311.933136 233.209473,323.346527 
	C239.889923,336.139862 246.528275,348.585114 253.217163,361.373108 
	C254.872284,364.475555 256.476898,367.235229 258.661652,370.992676 
	C260.505341,366.854797 261.792450,363.966125 263.385803,360.907837 
	C265.342560,357.755402 267.001404,354.777191 268.642059,351.789001 
	C273.568329,342.816589 278.487518,333.840271 283.657776,324.583069 
	C290.216156,312.541504 296.526215,300.782379 302.989471,288.696503 
	C307.039978,281.246857 310.937286,274.123932 314.991272,266.678284 
	C319.376434,258.569733 323.604889,250.783936 327.989624,242.677338 
	C332.797974,233.924789 337.450012,225.493027 342.411926,216.890594 
	C348.332184,206.450699 353.998993,196.211761 359.535522,185.902847 
	C364.142822,177.324066 368.597107,168.663086 373.426636,159.868759 
	C376.193665,154.811935 378.653259,149.924866 381.421326,144.875961 
	C383.874634,140.918137 386.093994,137.162003 388.149567,133.318283 
	C393.178955,123.913719 398.132660,114.468697 403.426392,104.875961 
	C409.434235,94.135620 415.132507,83.559280 420.987183,72.659950 
	C433.672699,49.618362 446.201782,26.899761 458.730896,4.181159 
	C458.328369,3.946440 457.925842,3.711722 457.523285,3.477003 
	C450.877533,9.624346 444.084991,15.621546 437.614380,21.948046 
	C420.303223,38.873631 403.130188,55.940445 385.594788,73.078400 
	C376.822815,81.454285 368.358337,89.702911 359.588196,98.081749 
	C350.839996,106.772041 342.397430,115.332123 333.644745,124.029068 
	C326.187714,131.095383 319.040771,138.024826 311.588684,145.085083 
	C295.002716,161.079865 278.721863,176.943848 262.282745,192.962067 
	C259.590790,188.487320 257.034393,184.151352 254.394791,179.866684 
	C247.226410,168.230774 240.022751,156.616608 232.794342,144.647293 
	C228.780960,137.865570 224.806305,131.430374 220.794220,124.651688 
	C215.831924,116.498940 210.907074,108.689667 205.782089,100.563080 
	C201.290894,108.714348 197.093124,116.333061 192.585510,124.112251 
	C188.482101,131.166534 184.688522,138.060318 180.576950,145.097565 
	C168.814331,165.130463 157.369705,185.019882 145.615387,205.075790 
	C139.926086,214.827866 134.546478,224.413483 129.009384,234.316620 
	C123.956947,243.089127 119.061989,251.544067 114.008896,260.316223 
	C113.018005,261.822632 112.090622,262.957275 111.367821,264.209961 
	C106.609825,272.456146 101.895912,280.727783 97.027008,289.293060 
	C96.551613,290.382935 96.216835,291.170898 95.579224,292.126312 
	C94.477722,293.699799 93.695480,295.115479 92.877823,296.510345 
	C85.637230,308.862274 78.295303,321.156036 71.179428,333.579315 
	C66.583199,341.603668 62.315376,349.816071 57.584614,358.093262 
	C51.498604,368.230560 45.740040,378.225616 39.955257,388.205444 
	C31.962023,401.995270 23.902584,415.747009 15.962793,429.567505 
	C11.520849,437.299408 7.263342,445.137238 2.546585,453.102173 
	C1.780285,453.184662 1.390145,453.092316 1.000003,453.000000 
	C1.000000,302.404205 1.000000,151.808426 1.000000,1.000000 
	C153.357346,1.000000 305.714783,1.000000 458.381836,1.427494 
	C459.127625,2.236657 459.563812,2.618326 460.000000,2.999997 
z"/>
<path fill="#1E00F9" opacity="1.000000" stroke="none" 
	d="
M3.725110,453.616943 
	C3.258696,454.264496 2.792284,454.912079 2.662937,455.779816 
	C2.333333,455.333344 1.666667,454.666656 1.000003,453.500000 
	C1.390145,453.092316 1.780285,453.184662 2.742262,453.280273 
	C3.451104,453.394684 3.588109,453.505829 3.725110,453.616943 
z"/>
<path fill="#C100E1" opacity="1.000000" stroke="none" 
	d="
M460.000000,2.499990 
	C459.563812,2.618326 459.127625,2.236657 458.845703,1.427487 
	C459.333344,1.333320 459.666687,1.666653 460.000000,2.499990 
z"/>
<path fill="#8300EB" opacity="1.000000" stroke="none" 
	d="
M232.833084,144.993805 
	C240.022751,156.616608 247.226410,168.230774 254.394791,179.866684 
	C257.034393,184.151352 259.590790,188.487320 262.282745,192.962067 
	C278.721863,176.943848 295.002716,161.079865 312.063721,145.095856 
	C327.487671,144.985458 342.131500,144.997009 356.775299,145.003006 
	C359.359344,145.004059 361.674835,144.926453 362.036285,148.625824 
	C362.926483,157.737076 363.060394,157.723969 371.660187,159.701721 
	C372.146606,159.813583 372.632874,159.926224 373.119202,160.038513 
	C368.597107,168.663086 364.142822,177.324066 359.535522,185.902847 
	C353.998993,196.211761 348.332184,206.450699 341.937683,216.877228 
	C324.099701,217.031006 307.045807,217.027512 289.523804,217.015610 
	C241.369904,217.008102 193.684067,217.008987 145.995972,216.546600 
	C145.970840,212.358643 145.947952,208.633987 145.925079,204.909317 
	C157.369705,185.019882 168.814331,165.130463 181.051849,145.108002 
	C198.840851,144.981262 215.836960,144.987534 232.833084,144.993805 
z"/>
<path fill="#6300F0" opacity="1.000000" stroke="none" 
	d="
M145.998245,217.009872 
	C193.684067,217.008987 241.369904,217.008102 289.525940,217.481384 
	C290.016724,223.418747 289.803833,228.895340 290.116699,234.341736 
	C290.513000,241.240997 292.627136,243.054123 298.826080,243.010651 
	C308.494720,242.942856 318.164215,242.996155 327.833344,242.998138 
	C323.604889,250.783936 319.376434,258.569733 314.533264,266.678436 
	C308.782104,267.001740 303.645691,266.992523 298.509308,267.004974 
	C291.993835,267.020782 290.392914,268.436737 290.075592,275.081848 
	C289.854492,279.711090 290.010956,284.358337 289.530212,288.999512 
	C264.679535,289.026611 240.297440,289.051758 215.915344,289.076904 
	C214.111160,286.053558 212.217468,283.079346 210.523193,279.995605 
	C207.800949,275.040863 205.210480,270.013672 202.377899,264.665070 
	C193.643250,272.872803 185.169846,280.835022 175.917084,288.923584 
	C165.427826,289.028015 155.717957,289.006165 146.007050,288.516663 
	C145.993225,281.737701 146.170212,275.418762 145.917801,269.117035 
	C145.627319,261.864960 143.561081,260.014069 136.589218,260.002869 
	C129.115173,259.990906 121.641090,259.999420 114.167030,259.999023 
	C119.061989,251.544067 123.956947,243.089127 129.464691,234.316772 
	C133.557770,233.991974 137.038071,233.978699 140.518387,233.978775 
	C144.213959,233.978851 145.991608,232.110535 145.982849,228.445206 
	C145.973755,224.633469 145.991974,220.821655 145.998245,217.009872 
z"/>
<path fill="#4000F4" opacity="1.000000" stroke="none" 
	d="
M149.047012,315.111176 
	C137.249451,326.362030 125.429840,337.589874 113.666382,348.876282 
	C109.601448,352.776367 105.676170,356.822021 100.910912,360.924805 
	C87.165466,360.335419 74.195061,359.641602 61.228924,358.875549 
	C60.104984,358.809174 59.009220,358.265961 57.900375,357.944214 
	C62.315376,349.816071 66.583199,341.603668 71.179428,333.579315 
	C78.295303,321.156036 85.637230,308.862274 92.877823,296.510345 
	C93.695480,295.115479 94.477722,293.699799 96.055458,292.135193 
	C110.831383,291.987640 124.828667,291.937836 138.824890,292.037262 
	C145.151718,292.082214 145.893188,293.048065 146.017120,299.366028 
	C146.123215,304.773621 144.855484,310.477966 149.047012,315.111176 
z"/>
<path fill="#4500F4" opacity="1.000000" stroke="none" 
	d="
M215.959290,289.439697 
	C240.297440,289.051758 264.679535,289.026611 289.991791,289.004639 
	C294.893402,289.012970 298.864807,289.018097 302.836243,289.023224 
	C296.526215,300.782379 290.216156,312.541504 283.341400,324.244934 
	C280.702484,323.792938 278.630524,323.067780 276.553650,323.053314 
	C262.092133,322.952545 247.629593,322.999115 233.167374,322.998444 
	C227.445984,311.933136 221.724594,300.867798 215.959290,289.439697 
z"/>
<path fill="#1E00F9" opacity="1.000000" stroke="none" 
	d="
M57.584610,358.093262 
	C59.009220,358.265961 60.104984,358.809174 61.228924,358.875549 
	C74.195061,359.641602 87.165466,360.335419 100.606552,361.062988 
	C90.992683,370.618286 80.906616,380.158539 70.822655,389.701080 
	C70.338852,390.158875 69.876930,390.639679 69.399628,391.104431 
	C56.664337,403.506531 44.011433,415.994812 31.163864,428.279480 
	C22.323616,436.732422 13.213265,444.902893 3.974375,453.408264 
	C3.588109,453.505829 3.451104,453.394684 3.118422,453.105469 
	C7.263342,445.137238 11.520849,437.299408 15.962793,429.567505 
	C23.902584,415.747009 31.962023,401.995270 39.955257,388.205444 
	C45.740040,378.225616 51.498604,368.230560 57.584610,358.093262 
z"/>
<path fill="#A500E6" opacity="1.000000" stroke="none" 
	d="
M403.116821,105.039948 
	C398.132660,114.468697 393.178955,123.913719 388.149567,133.318283 
	C386.093994,137.162003 383.874634,140.918137 380.946350,144.866333 
	C377.175171,145.010071 374.187439,144.998108 371.199707,144.993835 
	C362.749512,144.981750 362.085449,144.333328 362.002533,135.995300 
	C361.907623,126.448441 360.357117,124.877434 351.073975,125.011299 
	C349.585266,125.032768 348.081879,125.399475 346.614410,125.271721 
	C342.386566,124.903671 338.173645,124.364288 333.954865,123.892204 
	C342.397430,115.332123 350.839996,106.772041 359.875153,98.273636 
	C362.784027,100.423691 364.993713,104.162842 367.434723,104.320526 
	C379.294739,105.086700 391.216766,104.893448 403.116821,105.039948 
z"/>
<path fill="#AB00E5" opacity="1.000000" stroke="none" 
	d="
M403.426392,104.875954 
	C391.216766,104.893448 379.294739,105.086700 367.434723,104.320526 
	C364.993713,104.162842 362.784027,100.423691 360.180786,98.143425 
	C368.358337,89.702911 376.822815,81.454285 386.068970,73.087296 
	C398.177368,72.973602 409.504059,72.978264 420.830750,72.982933 
	C415.132507,83.559280 409.434235,94.135620 403.426392,104.875954 
z"/>
<path fill="#C100E1" opacity="1.000000" stroke="none" 
	d="
M420.987183,72.659950 
	C409.504059,72.978264 398.177368,72.973602 386.376465,72.960037 
	C403.130188,55.940445 420.303223,38.873631 437.614380,21.948046 
	C444.084991,15.621546 450.877533,9.624346 457.523285,3.477003 
	C457.925842,3.711722 458.328369,3.946440 458.730896,4.181159 
	C446.201782,26.899761 433.672699,49.618362 420.987183,72.659950 
z"/>
<path fill="#4000F4" opacity="1.000000" stroke="none" 
	d="
M233.209473,323.346527 
	C247.629593,322.999115 262.092133,322.952545 276.553650,323.053314 
	C278.630524,323.067780 280.702484,323.792938 283.093079,324.527344 
	C278.487518,333.840271 273.568329,342.816589 268.642059,351.789001 
	C267.001404,354.777191 265.342560,357.755402 262.933075,360.893524 
	C259.171600,361.042694 256.169128,361.036499 253.166626,361.030334 
	C246.528275,348.585114 239.889923,336.139862 233.209473,323.346527 
z"/>
<path fill="#5A00F1" opacity="1.000000" stroke="none" 
	d="
M114.008896,260.316223 
	C121.641090,259.999420 129.115173,259.990906 136.589218,260.002869 
	C143.561081,260.014069 145.627319,261.864960 145.917801,269.117035 
	C146.170212,275.418762 145.993225,281.737701 145.537506,288.520264 
	C129.101868,288.991394 113.134743,288.991272 97.167618,288.991119 
	C101.895912,280.727783 106.609825,272.456146 111.367821,264.209961 
	C112.090622,262.957275 113.018005,261.822632 114.008896,260.316223 
z"/>
<path fill="#6A00EE" opacity="1.000000" stroke="none" 
	d="
M327.989624,242.677338 
	C318.164215,242.996155 308.494720,242.942856 298.826080,243.010651 
	C292.627136,243.054123 290.513000,241.240997 290.116699,234.341736 
	C289.803833,228.895340 290.016724,223.418747 289.994019,217.489792 
	C307.045807,217.027512 324.099701,217.031006 341.627838,217.047897 
	C337.450012,225.493027 332.797974,233.924789 327.989624,242.677338 
z"/>
<path fill="#9B00E7" opacity="1.000000" stroke="none" 
	d="
M333.644745,124.029076 
	C338.173645,124.364288 342.386566,124.903671 346.614410,125.271721 
	C348.081879,125.399475 349.585266,125.032768 351.073975,125.011299 
	C360.357117,124.877434 361.907623,126.448441 362.002533,135.995300 
	C362.085449,144.333328 362.749512,144.981750 371.199707,144.993835 
	C374.187439,144.998108 377.175171,145.010071 380.637878,145.028168 
	C378.653259,149.924866 376.193665,154.811935 373.426636,159.868744 
	C372.632874,159.926224 372.146606,159.813583 371.660187,159.701721 
	C363.060394,157.723969 362.926483,157.737076 362.036285,148.625824 
	C361.674835,144.926453 359.359344,145.004059 356.775299,145.003006 
	C342.131500,144.997009 327.487671,144.985458 312.368866,144.965027 
	C319.040771,138.024826 326.187714,131.095383 333.644745,124.029076 
z"/>
<path fill="#9B00E7" opacity="1.000000" stroke="none" 
	d="
M232.794342,144.647278 
	C215.836960,144.987534 198.840851,144.981262 181.369827,144.964539 
	C184.688522,138.060318 188.482101,131.166534 192.976410,124.274155 
	C202.728638,124.515442 211.780136,124.755302 220.831650,124.995171 
	C224.806305,131.430374 228.780960,137.865570 232.794342,144.647278 
z"/>
<path fill="#4500F4" opacity="1.000000" stroke="none" 
	d="
M97.027008,289.293060 
	C113.134743,288.991272 129.101868,288.991394 145.538544,288.987915 
	C155.717957,289.006165 165.427826,289.028015 175.609680,289.064789 
	C167.274216,297.662567 158.466766,306.245422 149.353180,314.969727 
	C144.855484,310.477966 146.123215,304.773621 146.017120,299.366028 
	C145.893188,293.048065 145.151718,292.082214 138.824890,292.037262 
	C124.828667,291.937836 110.831383,291.987640 96.358292,291.967712 
	C96.216835,291.170898 96.551613,290.382935 97.027008,289.293060 
z"/>
<path fill="#5A00F1" opacity="1.000000" stroke="none" 
	d="
M302.989471,288.696503 
	C298.864807,289.018097 294.893402,289.012970 290.460388,289.002686 
	C290.010956,284.358337 289.854492,279.711090 290.075592,275.081848 
	C290.392914,268.436737 291.993835,267.020782 298.509308,267.004974 
	C303.645691,266.992523 308.782104,267.001740 314.376556,267.001160 
	C310.937286,274.123932 307.039978,281.246857 302.989471,288.696503 
z"/>
<path fill="#A500E6" opacity="1.000000" stroke="none" 
	d="
M220.794220,124.651688 
	C211.780136,124.755302 202.728638,124.515442 193.286240,124.113670 
	C197.093124,116.333061 201.290894,108.714348 205.782089,100.563080 
	C210.907074,108.689667 215.831924,116.498940 220.794220,124.651688 
z"/>
<path fill="#6A00EE" opacity="1.000000" stroke="none" 
	d="
M145.995972,216.546600 
	C145.991974,220.821655 145.973755,224.633469 145.982849,228.445206 
	C145.991608,232.110535 144.213959,233.978851 140.518387,233.978775 
	C137.038071,233.978699 133.557770,233.991974 129.622162,233.999237 
	C134.546478,224.413483 139.926086,214.827866 145.615387,205.075790 
	C145.947952,208.633987 145.970840,212.358643 145.995972,216.546600 
z"/>
<path fill="#1E00F9" opacity="1.000000" stroke="none" 
	d="
M253.217163,361.373108 
	C256.169128,361.036499 259.171600,361.042694 262.626831,361.063171 
	C261.792450,363.966125 260.505341,366.854797 258.661652,370.992676 
	C256.476898,367.235229 254.872284,364.475555 253.217163,361.373108 
z"/>
</svg>