<svg version="1.1" viewBox="0.0 0.0 960.0 540.0" fill="none" stroke="none" stroke-linecap="square" stroke-miterlimit="10" xmlns:xlink="http://www.w3.org/1999/xlink" xmlns="http://www.w3.org/2000/svg"><clipPath id="p.0"><path d="m0 0l960.0 0l0 540.0l-960.0 0l0 -540.0z" clip-rule="nonzero"/></clipPath><g clip-path="url(#p.0)"><path fill="#303030" d="m0 0l960.0 0l0 540.0l-960.0 0z" fill-rule="evenodd"/><path fill="#000000" fill-opacity="0.0" d="m32.725285 78.1706l894.5512 0l0 215.49606l-894.5512 0z" fill-rule="evenodd"/><path fill="#6d9eeb" d="m284.35907 221.08855l-17.578125 47.57811l-3.3125 0l-17.578125 -47.57811l3.515625 0l13.015625 35.20311q0.5625 1.53125 1.046875 2.984375q0.484375 1.453125 0.90625 2.796875q0.421875 1.328125 0.75 2.5625q0.328125 -1.234375 0.734375 -2.515625q0.40625 -1.296875 0.890625 -2.734375q0.484375 -1.453125 1.078125 -3.125l12.984375 -35.17186l3.546875 0zm35.22055 29.84375q0 4.09375 -1.015625 7.4687347q-1.0 3.359375 -2.984375 5.8125q-1.984375 2.4375 -4.9375 3.78125q-2.9375 1.328125 -6.84375 1.328125q-3.71875 0 -6.625 -1.3125q-2.890625 -1.328125 -4.890625 -3.765625q-2.0 -2.453125 -3.046875 -5.8125q-1.03125 -3.3749847 -1.03125 -7.4999847q0 -5.703125 1.90625 -9.8125q1.90625 -4.125 5.46875 -6.3125q3.5625 -2.203125 8.53125 -2.203125q5.15625 0 8.578125 2.328125q3.4375 2.328125 5.15625 6.46875q1.734375 4.125 1.734375 9.53125zm-28.0 0q0 4.65625 1.328125 8.14061q1.34375 3.46875 4.0625 5.421875q2.71875 1.953125 6.890625 1.953125q4.265625 0 7.0 -1.953125q2.734375 -1.953125 4.03125 -5.46875q1.296875 -3.5156097 1.296875 -8.093735q0 -4.46875 -1.234375 -7.9375q-1.234375 -3.484375 -3.90625 -5.484375q-2.671875 -2.015625 -6.96875 -2.015625q-6.140625 0 -9.328125 4.109375q-3.171875 4.09375 -3.171875 11.328125zm41.073334 17.73436l-3.3125 0l0 -50.64061l3.3125 0l0 50.64061zm21.287994 -2.1875q1.53125 0 2.84375 -0.21875q1.328125 -0.234375 2.34375 -0.59375l0 2.734375q-1.046875 0.359375 -2.453125 0.640625q-1.390625 0.28125 -3.09375 0.28125q-2.984375 0 -4.96875 -1.125q-1.984375 -1.125 -3.0 -3.421875q-1.0 -2.296875 -1.0 -5.84375l0 -22.906235l-5.28125 0l0 -1.953125l5.234375 -1.015625l1.140625 -8.328125l2.1875 0l0 8.5625l11.03125 0l0 2.734375l-11.03125 0l0 22.718735q0 3.796875 1.40625 5.765625q1.421875 1.96875 4.640625 1.96875zm25.091583 -33.812485q5.828125 0 8.71875 2.9375q2.90625 2.921875 2.90625 9.328125l0 23.73436l-2.53125 0l-0.59375 -6.1875l-0.1875 0q-1.140625 1.984375 -2.78125 3.53125q-1.625 1.546875 -3.984375 2.4375q-2.359375 0.875 -5.734375 0.875q-3.421875 0 -5.84375 -1.140625q-2.421875 -1.140625 -3.75 -3.3125q-1.3125 -2.1875 -1.3125 -5.3125q0 -5.2812347 4.359375 -8.031235q4.359375 -2.75 12.53125 -3.109375l6.578125 -0.3125l0 -2.578125q0 -5.4375 -2.15625 -7.75q-2.140625 -2.3125 -6.34375 -2.3125q-2.734375 0 -5.265625 0.703125q-2.515625 0.703125 -5.109375 2.0l-1.046875 -2.734375q2.53125 -1.203125 5.4375 -1.984375q2.921875 -0.78125 6.109375 -0.78125zm8.34375 18.0l-6.1875 0.265625q-6.734375 0.328125 -10.25 2.40625q-3.515625 2.078125 -3.515625 6.2499847q0 3.34375 2.09375 5.140625q2.109375 1.796875 5.84375 1.796875q5.828125 0 8.90625 -3.3125q3.078125 -3.328125 3.109375 -9.062485l0 -3.484375zm23.985352 34.01561q-6.671875 0 -10.375 -2.578125q-3.6875 -2.5625 -3.6875 -7.1875q0 -3.578125 2.234375 -6.171875q2.25 -2.578125 6.09375 -3.109375q-1.53125 -0.71875 -2.5 -1.953125q-0.953125 -1.234375 -0.953125 -2.859375q0 -1.828125 1.140625 -3.40625q1.140625 -1.5781097 3.421875 -2.9062347q-3.0625 -1.109375 -4.828125 -3.75q-1.75 -2.65625 -1.75 -6.40625q0 -3.578125 1.53125 -6.21875q1.53125 -2.640625 4.34375 -4.078125q2.8125 -1.453125 6.65625 -1.453125q1.171875 0 2.125 0.0625q0.96875 0.0625 1.78125 0.21875q0.8125 0.140625 1.46875 0.375l11.421875 0l0 2.34375l-7.296875 0.484375q1.4375 1.71875 2.15625 3.734375q0.71875 2.0 0.71875 4.203125q0 5.28125 -3.328125 8.375q-3.3125 3.078125 -9.234375 3.078125q-1.625 0 -3.1875 -0.28125q-1.984375 1.1718597 -3.03125 2.3593597q-1.046875 1.1875 -1.046875 2.9375q0 1.109375 0.65625 1.8125q0.65625 0.703125 1.890625 1.078125q1.234375 0.359375 3.015625 0.359375l6.21875 0q5.765625 0 8.828125 2.34375q3.0625 2.34375 3.0625 6.90625q0 5.5625 -4.578125 8.625q-4.578125 3.0625 -12.96875 3.0625zm0.21875 -2.765625q4.65625 0 7.765625 -1.015625q3.109375 -1.0 4.671875 -2.96875q1.5625 -1.96875 1.5625 -4.875q0 -2.375 -1.140625 -3.671875q-1.140625 -1.296875 -3.21875 -1.796875q-2.078125 -0.515625 -4.921875 -0.515625l-5.921875 0q-2.828125 0 -5.046875 0.765625q-2.203125 0.765625 -3.421875 2.421875q-1.21875 1.65625 -1.21875 4.421875q0 3.546875 2.78125 5.390625q2.78125 1.84375 8.109375 1.84375zm1.046875 -29.062485q4.390625 0 6.734375 -2.21875q2.34375 -2.21875 2.34375 -6.40625q0 -4.5 -2.40625 -6.734375q-2.40625 -2.25 -6.734375 -2.25q-4.203125 0 -6.59375 2.390625q-2.390625 2.390625 -2.390625 6.71875q0 4.03125 2.28125 6.265625q2.28125 2.234375 6.765625 2.234375zm37.39563 -20.25q4.53125 0 7.53125 2.125q3.015625 2.109375 4.5 5.796875q1.484375 3.671875 1.484375 8.421875l0 2.375l-25.5625 0q0 7.2812347 3.375 11.187485q3.375 3.90625 9.65625 3.90625q3.28125 0 5.703125 -0.53125q2.421875 -0.53125 5.390625 -1.84375l0 3.03125q-2.609375 1.171875 -5.21875 1.703125q-2.59375 0.546875 -5.984375 0.546875q-5.359375 0 -9.0 -2.234375q-3.625 -2.234375 -5.46875 -6.296875q-1.828125 -4.0625 -1.828125 -9.499985q0 -5.3125 1.765625 -9.53125q1.78125 -4.234375 5.203125 -6.6875q3.4375 -2.46875 8.453125 -2.46875zm-0.03125 2.828125q-5.078125 0 -8.21875 3.375q-3.140625 3.359375 -3.6875 9.71875l22.03125 0q0 -3.875 -1.109375 -6.828125q-1.109375 -2.96875 -3.34375 -4.609375q-2.21875 -1.65625 -5.671875 -1.65625zm75.89911 33.23436l-3.34375 0l0 -23.437485l-27.796875 0l0 23.437485l-3.359375 0l0 -47.57811l3.359375 0l0 21.078125l27.796875 0l0 -21.078125l3.34375 0l0 47.57811zm41.957336 -17.73436q0 4.09375 -1.015625 7.4687347q-1.0 3.359375 -2.984375 5.8125q-1.984375 2.4375 -4.9375 3.78125q-2.9375 1.328125 -6.84375 1.328125q-3.71875 0 -6.625 -1.3125q-2.890564 -1.328125 -4.890564 -3.765625q-2.0 -2.453125 -3.046875 -5.8125q-1.03125 -3.3749847 -1.03125 -7.4999847q0 -5.703125 1.90625 -9.8125q1.90625 -4.125 5.46875 -6.3125q3.562439 -2.203125 8.531189 -2.203125q5.15625 0 8.578125 2.328125q3.4375 2.328125 5.15625 6.46875q1.734375 4.125 1.734375 9.53125zm-27.999939 0q0 4.65625 1.328125 8.14061q1.34375 3.46875 4.062439 5.421875q2.71875 1.953125 6.890625 1.953125q4.265625 0 7.0 -1.953125q2.734375 -1.953125 4.03125 -5.46875q1.296875 -3.5156097 1.296875 -8.093735q0 -4.46875 -1.234375 -7.9375q-1.234375 -3.484375 -3.90625 -5.484375q-2.671875 -2.015625 -6.96875 -2.015625q-6.140625 0 -9.328064 4.109375q-3.171875 4.09375 -3.171875 11.328125zm59.854553 8.45311q0 3.15625 -1.578125 5.390625q-1.578125 2.234375 -4.609375 3.390625q-3.015625 1.15625 -7.4375 1.15625q-3.6875 0 -6.59375 -0.65625q-2.890625 -0.65625 -4.84375 -1.59375l0 -3.25q2.453125 1.203125 5.40625 1.953125q2.96875 0.75 6.09375 0.75q5.46875 0 7.875 -1.859375q2.40625 -1.859375 2.40625 -5.078125q0 -2.125 -1.1875 -3.5q-1.1875 -1.3906097 -3.40625 -2.3906097q-2.203125 -1.015625 -5.328125 -2.046875q-3.265625 -1.109375 -5.78125 -2.203125q-2.515625 -1.09375 -3.953125 -2.890625q-1.4375 -1.8125 -1.4375 -4.9375q0 -4.265625 3.421875 -6.640625q3.421875 -2.375 9.171875 -2.375q3.1875 0 5.9375 0.609375q2.765625 0.59375 5.0 1.546875l-1.171875 2.796875q-2.015625 -0.953125 -4.65625 -1.53125q-2.625 -0.59375 -5.265625 -0.59375q-4.328125 0 -6.78125 1.53125q-2.4375 1.53125 -2.4375 4.5q0 2.265625 1.171875 3.5625q1.171875 1.28125 3.359375 2.140625q2.1875 0.859375 5.171875 1.90625q3.09375 1.078125 5.703125 2.25q2.625 1.171875 4.1875 3.03125q1.5625 1.8437347 1.5625 5.0312347zm18.487305 7.09375q1.53125 0 2.84375 -0.21875q1.328125 -0.234375 2.34375 -0.59375l0 2.734375q-1.046875 0.359375 -2.453125 0.640625q-1.390625 0.28125 -3.09375 0.28125q-2.984375 0 -4.96875 -1.125q-1.984375 -1.125 -3.0 -3.421875q-1.0 -2.296875 -1.0 -5.84375l0 -22.906235l-5.28125 0l0 -1.953125l5.234375 -1.015625l1.140625 -8.328125l2.1875 0l0 8.5625l11.03125 0l0 2.734375l-11.03125 0l0 22.718735q0 3.796875 1.40625 5.765625q1.421875 1.96875 4.640625 1.96875zm16.013489 -33.187485l0 35.374985l-3.28125 0l0 -35.374985l3.28125 0zm-1.59375 -13.09375q1.234375 0 1.8125 0.734375q0.59375 0.734375 0.59375 1.96875q0 1.234375 -0.59375 1.953125q-0.578125 0.71875 -1.8125 0.71875q-1.171875 0 -1.765625 -0.71875q-0.578125 -0.71875 -0.578125 -1.953125q0 -1.234375 0.578125 -1.96875q0.59375 -0.734375 1.765625 -0.734375zm28.975525 12.40625q5.953125 0 9.140625 3.125q3.1875 3.125 3.1875 9.796875l0 23.14061l-3.25 0l0 -22.95311q0 -5.265625 -2.40625 -7.734375q-2.40625 -2.484375 -7.0 -2.484375q-5.828125 0 -8.90625 3.40625q-3.078125 3.40625 -3.078125 10.265625l0 19.499985l-3.28125 0l0 -35.374985l2.671875 0l0.484375 6.4375l0.1875 0q0.953125 -1.984375 2.59375 -3.59375q1.640625 -1.609375 4.046875 -2.5625q2.421875 -0.96875 5.609375 -0.96875zm33.130554 52.07811q-6.671875 0 -10.375 -2.578125q-3.6875 -2.5625 -3.6875 -7.1875q0 -3.578125 2.234375 -6.171875q2.25 -2.578125 6.09375 -3.109375q-1.53125 -0.71875 -2.5 -1.953125q-0.953125 -1.234375 -0.953125 -2.859375q0 -1.828125 1.140625 -3.40625q1.140625 -1.5781097 3.421875 -2.9062347q-3.0625 -1.109375 -4.828125 -3.75q-1.75 -2.65625 -1.75 -6.40625q0 -3.578125 1.53125 -6.21875q1.53125 -2.640625 4.34375 -4.078125q2.8125 -1.453125 6.65625 -1.453125q1.171875 0 2.125 0.0625q0.96875 0.0625 1.78125 0.21875q0.8125 0.140625 1.46875 0.375l11.421875 0l0 2.34375l-7.296875 0.484375q1.4375 1.71875 2.15625 3.734375q0.71875 2.0 0.71875 4.203125q0 5.28125 -3.328125 8.375q-3.3125 3.078125 -9.234375 3.078125q-1.625 0 -3.1875 -0.28125q-1.984375 1.1718597 -3.03125 2.3593597q-1.046875 1.1875 -1.046875 2.9375q0 1.109375 0.65625 1.8125q0.65625 0.703125 1.890625 1.078125q1.234375 0.359375 3.015625 0.359375l6.21875 0q5.765625 0 8.828125 2.34375q3.0625 2.34375 3.0625 6.90625q0 5.5625 -4.578125 8.625q-4.578125 3.0625 -12.96875 3.0625zm0.21875 -2.765625q4.65625 0 7.765625 -1.015625q3.109375 -1.0 4.671875 -2.96875q1.5625 -1.96875 1.5625 -4.875q0 -2.375 -1.140625 -3.671875q-1.140625 -1.296875 -3.21875 -1.796875q-2.078125 -0.515625 -4.921875 -0.515625l-5.921875 0q-2.828125 0 -5.046875 0.765625q-2.203125 0.765625 -3.421875 2.421875q-1.21875 1.65625 -1.21875 4.421875q0 3.546875 2.78125 5.390625q2.78125 1.84375 8.109375 1.84375zm1.046875 -29.062485q4.390625 0 6.734375 -2.21875q2.34375 -2.21875 2.34375 -6.40625q0 -4.5 -2.40625 -6.734375q-2.40625 -2.25 -6.734375 -2.25q-4.203125 0 -6.59375 2.390625q-2.390625 2.390625 -2.390625 6.71875q0 4.03125 2.28125 6.265625q2.28125 2.234375 6.765625 2.234375z" fill-rule="nonzero"/><path fill="#000000" fill-opacity="0.0" d="m32.72441 297.54593l894.55115 0l0 83.212616l-894.55115 0z" fill-rule="evenodd"/><path fill="#adadad" d="m327.21094 316.38342l0 18.484375q0 3.34375 -1.296875 5.671875q-1.28125 2.328125 -3.703125 3.5625q-2.40625 1.234375 -5.765625 1.234375q-5.09375 0 -7.828125 -2.765625q-2.734375 -2.765625 -2.734375 -7.78125l0 -18.40625l1.984375 0l0 18.40625q0 4.296875 2.234375 6.53125q2.25 2.234375 6.4375 2.234375q2.765625 0 4.6875 -0.984375q1.9375 -0.984375 2.953125 -2.890625q1.015625 -1.90625 1.015625 -4.625l0 -18.671875l2.015625 0zm16.582031 6.921875q3.578125 0 5.484375 1.875q1.921875 1.875 1.921875 5.875l0 13.890625l-1.953125 0l0 -13.765625q0 -3.171875 -1.453125 -4.65625q-1.4375 -1.484375 -4.203125 -1.484375q-3.484375 0 -5.34375 2.046875q-1.84375 2.03125 -1.84375 6.15625l0 11.703125l-1.96875 0l0 -21.234375l1.609375 0l0.28125 3.875l0.125 0q0.5625 -1.203125 1.546875 -2.15625q0.984375 -0.96875 2.421875 -1.546875q1.453125 -0.578125 3.375 -0.578125zm21.957031 22.03125q-4.359375 0 -6.640625 -2.734375q-2.265625 -2.75 -2.265625 -8.015625q0 -5.5 2.390625 -8.390625q2.40625 -2.890625 6.703125 -2.890625q1.84375 0 3.1875 0.5625q1.359375 0.5625 2.28125 1.53125q0.9375 0.96875 1.453125 2.203125l0.15625 0q-0.078125 -1.03125 -0.125 -2.21875q-0.03125 -1.203125 -0.03125 -2.203125l0 -8.625l1.96875 0l0 30.390625l-1.609375 0l-0.25 -3.890625l-0.109375 0q-0.53125 1.171875 -1.46875 2.15625q-0.921875 0.96875 -2.3125 1.546875q-1.375 0.578125 -3.328125 0.578125zm0.203125 -1.71875q3.75 0 5.328125 -2.328125q1.59375 -2.34375 1.59375 -6.671875l0 -0.3125q0 -4.5 -1.59375 -6.890625q-1.578125 -2.390625 -5.140625 -2.390625q-3.546875 0 -5.40625 2.46875q-1.859375 2.453125 -1.859375 7.140625q0 4.40625 1.734375 6.703125q1.75 2.28125 5.34375 2.28125zm23.949219 -20.3125q2.71875 0 4.515625 1.265625q1.8125 1.265625 2.703125 3.484375q0.890625 2.203125 0.890625 5.046875l0 1.4375l-15.328125 0q0 4.375 2.015625 6.71875q2.015625 2.34375 5.796875 2.34375q1.96875 0 3.421875 -0.328125q1.453125 -0.328125 3.234375 -1.109375l0 1.828125q-1.5625 0.703125 -3.125 1.015625q-1.5625 0.328125 -3.59375 0.328125q-3.21875 0 -5.40625 -1.328125q-2.171875 -1.34375 -3.28125 -3.78125q-1.09375 -2.453125 -1.09375 -5.71875q0 -3.171875 1.0625 -5.703125q1.0625 -2.546875 3.125 -4.015625q2.0625 -1.484375 5.0625 -1.484375zm-0.015625 1.703125q-3.046875 0 -4.9375 2.015625q-1.875 2.015625 -2.21875 5.828125l13.234375 0q0 -2.328125 -0.671875 -4.09375q-0.65625 -1.78125 -2.0 -2.765625q-1.34375 -0.984375 -3.40625 -0.984375zm22.394531 -1.671875q0.84375 0 1.578125 0.109375q0.75 0.09375 1.390625 0.265625l-0.3125 1.8125q-0.640625 -0.171875 -1.3125 -0.25q-0.65625 -0.09375 -1.421875 -0.09375q-1.5 0 -2.6875 0.5625q-1.171875 0.5625 -2.0 1.625q-0.8125 1.046875 -1.25 2.53125q-0.421875 1.484375 -0.421875 3.328125l0 11.71875l-2.0 0l0 -21.234375l1.703125 0l0.203125 4.0l0.109375 0q0.484375 -1.21875 1.375 -2.203125q0.890625 -1.0 2.15625 -1.578125q1.28125 -0.59375 2.890625 -0.59375zm30.144531 -5.546875q-2.734375 0 -4.890625 0.9375q-2.140625 0.921875 -3.625 2.625q-1.484375 1.703125 -2.265625 4.0625q-0.78125 2.34375 -0.78125 5.171875q0 3.90625 1.21875 6.828125q1.234375 2.921875 3.703125 4.53125q2.484375 1.59375 6.171875 1.59375q2.140625 0 3.890625 -0.3125q1.765625 -0.328125 3.28125 -0.84375l0 1.765625q-1.4375 0.515625 -3.21875 0.84375q-1.78125 0.34375 -4.15625 0.34375q-4.265625 0 -7.171875 -1.828125q-2.90625 -1.84375 -4.375 -5.15625q-1.453125 -3.328125 -1.453125 -7.765625q0 -3.1875 0.90625 -5.84375q0.921875 -2.671875 2.6875 -4.625q1.78125 -1.96875 4.3125 -3.046875q2.546875 -1.09375 5.78125 -1.09375q2.046875 0 3.90625 0.40625q1.875 0.390625 3.515625 1.15625l-0.78125 1.765625q-1.578125 -0.78125 -3.25 -1.140625q-1.65625 -0.375 -3.40625 -0.375zm29.808594 16.515625q0 2.453125 -0.609375 4.484375q-0.609375 2.015625 -1.796875 3.484375q-1.1875 1.453125 -2.96875 2.265625q-1.765625 0.796875 -4.109375 0.796875q-2.21875 0 -3.96875 -0.78125q-1.734375 -0.796875 -2.9375 -2.265625q-1.1875 -1.46875 -1.8125 -3.484375q-0.625 -2.03125 -0.625 -4.5q0 -3.421875 1.140625 -5.890625q1.140625 -2.46875 3.28125 -3.78125q2.140625 -1.328125 5.125 -1.328125q3.078125 0 5.140625 1.40625q2.0625 1.390625 3.09375 3.875q1.046875 2.46875 1.046875 5.71875zm-16.796875 0q0 2.78125 0.796875 4.875q0.796875 2.09375 2.421875 3.265625q1.640625 1.171875 4.140625 1.171875q2.5625 0 4.203125 -1.171875q1.640625 -1.171875 2.421875 -3.28125q0.78125 -2.109375 0.78125 -4.859375q0 -2.6875 -0.75 -4.765625q-0.734375 -2.09375 -2.34375 -3.296875q-1.59375 -1.203125 -4.171875 -1.203125q-3.703125 0 -5.609375 2.46875q-1.890625 2.453125 -1.890625 6.796875zm31.988281 -11.0q3.578125 0 5.484375 1.875q1.921875 1.875 1.921875 5.875l0 13.890625l-1.953125 0l0 -13.765625q0 -3.171875 -1.453125 -4.65625q-1.4375 -1.484375 -4.203125 -1.484375q-3.484375 0 -5.34375 2.046875q-1.84375 2.03125 -1.84375 6.15625l0 11.703125l-1.96875 0l0 -21.234375l1.609375 0l0.28125 3.875l0.125 0q0.5625 -1.203125 1.546875 -2.15625q0.984375 -0.96875 2.421875 -1.546875q1.453125 -0.578125 3.375 -0.578125zm27.535156 16.078125q0 1.890625 -0.953125 3.234375q-0.9375 1.328125 -2.765625 2.03125q-1.8125 0.6875 -4.46875 0.6875q-2.203125 0 -3.9375 -0.390625q-1.734375 -0.390625 -2.90625 -0.953125l0 -1.953125q1.453125 0.71875 3.234375 1.171875q1.78125 0.4375 3.65625 0.4375q3.28125 0 4.71875 -1.109375q1.453125 -1.109375 1.453125 -3.046875q0 -1.265625 -0.71875 -2.09375q-0.703125 -0.828125 -2.03125 -1.4375q-1.328125 -0.609375 -3.203125 -1.234375q-1.953125 -0.65625 -3.46875 -1.3125q-1.515625 -0.65625 -2.375 -1.734375q-0.859375 -1.09375 -0.859375 -2.96875q0 -2.5625 2.046875 -3.984375q2.046875 -1.421875 5.515625 -1.421875q1.90625 0 3.546875 0.359375q1.65625 0.359375 3.015625 0.921875l-0.703125 1.6875q-1.21875 -0.5625 -2.796875 -0.90625q-1.578125 -0.359375 -3.171875 -0.359375q-2.59375 0 -4.0625 0.921875q-1.453125 0.90625 -1.453125 2.6875q0 1.359375 0.703125 2.140625q0.703125 0.765625 2.0 1.28125q1.3125 0.515625 3.109375 1.140625q1.859375 0.65625 3.421875 1.359375q1.578125 0.703125 2.515625 1.8125q0.9375 1.109375 0.9375 3.03125zm11.1015625 4.25q0.90625 0 1.703125 -0.125q0.796875 -0.140625 1.390625 -0.359375l0 1.640625q-0.625 0.21875 -1.46875 0.375q-0.828125 0.171875 -1.84375 0.171875q-1.796875 0 -3.0 -0.671875q-1.1875 -0.671875 -1.796875 -2.046875q-0.59375 -1.390625 -0.59375 -3.515625l0 -13.75l-3.171875 0l0 -1.171875l3.15625 -0.609375l0.671875 -5.0l1.3125 0l0 5.140625l6.625 0l0 1.640625l-6.625 0l0 13.640625q0 2.28125 0.84375 3.46875q0.859375 1.171875 2.796875 1.171875zm16.082031 -20.296875q0.84375 0 1.578125 0.109375q0.75 0.09375 1.390686 0.265625l-0.3125 1.8125q-0.64068604 -0.171875 -1.312561 -0.25q-0.65625 -0.09375 -1.421875 -0.09375q-1.5 0 -2.6875 0.5625q-1.171875 0.5625 -2.0 1.625q-0.8125 1.046875 -1.25 2.53125q-0.421875 1.484375 -0.421875 3.328125l0 11.71875l-2.0 0l0 -21.234375l1.703125 0l0.203125 4.0l0.109375 0q0.484375 -1.21875 1.375 -2.203125q0.890625 -1.0 2.15625 -1.578125q1.28125 -0.59375 2.890625 -0.59375zm23.613342 0.375l0 21.234375l-1.59375 0l-0.296875 -3.828125l-0.109375 0q-0.546875 1.171875 -1.546875 2.125q-1.0 0.953125 -2.453125 1.53125q-1.4375 0.5625 -3.34375 0.5625q-2.453125 0 -4.109375 -0.84375q-1.640625 -0.859375 -2.484375 -2.578125q-0.828125 -1.71875 -0.828125 -4.296875l0 -13.90625l1.96875 0l0 13.71875q0 3.171875 1.4375 4.6875q1.4375 1.5 4.203125 1.5q2.34375 0 3.9375 -0.890625q1.59375 -0.90625 2.421875 -2.734375q0.828125 -1.828125 0.828125 -4.5625l0 -11.71875l1.96875 0zm15.628906 21.625q-3.15625 0 -5.34375 -1.3125q-2.171875 -1.328125 -3.28125 -3.78125q-1.09375 -2.453125 -1.09375 -5.8125q0 -3.484375 1.265625 -5.96875q1.265625 -2.5 3.5625 -3.828125q2.3125 -1.328125 5.421875 -1.328125q1.515625 0 2.828125 0.28125q1.3125 0.265625 2.359375 0.75l-0.515625 1.734375q-1.09375 -0.484375 -2.328125 -0.734375q-1.234375 -0.25 -2.359375 -0.25q-2.625 0 -4.453125 1.140625q-1.828125 1.140625 -2.796875 3.25q-0.953125 2.09375 -0.953125 4.9375q0 2.671875 0.8125 4.734375q0.828125 2.0625 2.515625 3.25q1.703125 1.171875 4.359375 1.171875q1.546875 0 2.9375 -0.3125q1.40625 -0.3125 2.546875 -0.796875l0 1.796875q-1.03125 0.46875 -2.390625 0.765625q-1.359375 0.3125 -3.09375 0.3125zm16.238281 -1.703125q0.90625 0 1.703125 -0.125q0.796875 -0.140625 1.390625 -0.359375l0 1.640625q-0.625 0.21875 -1.46875 0.375q-0.828125 0.171875 -1.84375 0.171875q-1.796875 0 -3.0 -0.671875q-1.1875 -0.671875 -1.796875 -2.046875q-0.59375 -1.390625 -0.59375 -3.515625l0 -13.75l-3.171875 0l0 -1.171875l3.15625 -0.609375l0.671875 -5.0l1.3125 0l0 5.140625l6.625 0l0 1.640625l-6.625 0l0 13.640625q0 2.28125 0.84375 3.46875q0.859375 1.171875 2.796875 1.171875zm9.597656 -19.921875l0 21.234375l-1.96875 0l0 -21.234375l1.96875 0zm-0.953125 -7.84375q0.75 0 1.09375 0.4375q0.359375 0.4375 0.359375 1.171875q0 0.75 -0.359375 1.1875q-0.34375 0.421875 -1.09375 0.421875q-0.703125 0 -1.0625 -0.421875q-0.34375 -0.4375 -0.34375 -1.1875q0 -0.734375 0.34375 -1.171875q0.359375 -0.4375 1.0625 -0.4375zm25.652344 18.4375q0 2.453125 -0.609375 4.484375q-0.609375 2.015625 -1.796875 3.484375q-1.1875 1.453125 -2.96875 2.265625q-1.765625 0.796875 -4.109375 0.796875q-2.21875 0 -3.96875 -0.78125q-1.734375 -0.796875 -2.9375 -2.265625q-1.1875 -1.46875 -1.8125 -3.484375q-0.625 -2.03125 -0.625 -4.5q0 -3.421875 1.140625 -5.890625q1.140625 -2.46875 3.28125 -3.78125q2.140625 -1.328125 5.125 -1.328125q3.078125 0 5.140625 1.40625q2.0625 1.390625 3.09375 3.875q1.046875 2.46875 1.046875 5.71875zm-16.796875 0q0 2.78125 0.796875 4.875q0.796875 2.09375 2.421875 3.265625q1.640625 1.171875 4.140625 1.171875q2.5625 0 4.203125 -1.171875q1.640625 -1.171875 2.421875 -3.28125q0.78125 -2.109375 0.78125 -4.859375q0 -2.6875 -0.75 -4.765625q-0.734375 -2.09375 -2.34375 -3.296875q-1.59375 -1.203125 -4.171875 -1.203125q-3.703125 0 -5.609375 2.46875q-1.890625 2.453125 -1.890625 6.796875zm31.988281 -11.0q3.578125 0 5.484375 1.875q1.921875 1.875 1.921875 5.875l0 13.890625l-1.953125 0l0 -13.765625q0 -3.171875 -1.453125 -4.65625q-1.4375 -1.484375 -4.203125 -1.484375q-3.484375 0 -5.34375 2.046875q-1.84375 2.03125 -1.84375 6.15625l0 11.703125l-1.96875 0l0 -21.234375l1.609375 0l0.28125 3.875l0.125 0q0.5625 -1.203125 1.546875 -2.15625q0.984375 -0.96875 2.421875 -1.546875q1.453125 -0.578125 3.375 -0.578125z" fill-rule="nonzero"/></g></svg>